<?xml version="1.0" encoding="utf-8"?>
<!-- Designed by Vexels.com - 2020 All Rights Reserved - https://vexels.com/terms-and-conditions/  -->
<svg version="1.1" id="Capa_1" xmlns="http://www.w3.org/2000/svg" xmlns:xlink="http://www.w3.org/1999/xlink" x="0px" y="0px"
	 viewBox="0 0 1200 1200" enable-background="new 0 0 1200 1200" xml:space="preserve">
<g>
	<path fill="#FFDD00" d="M1112.414,457.556c-11.112-7.403-22.023,2.524-32.376-1.675c1.061-13.138,14.486-13.33,20.457-22.654
		c-10.698-1.161-20.357-3.672-29.728-2.858c-11.671,1.014-23.503,0.123-26.161-11.612c-2.527-11.157,13.601-7.267,19.301-15.298
		c-13.975-0.91-17.824-21.352-31.037-15.353c5.476-35.028,41.492-29.428,66.601-45.009c-18.472,0.044-33.118,4.729-47.713,8.926
		c-16.648,4.788-36.989,2.871-46.138-5.985c-17.242-16.688-38.092-12.613-50.245-6.745c-17.882,8.635-30.181,0.995-44.746-1.759
		c-3.793-0.717-9.237-1.877-9.278-7.32c-0.043-5.689,5.101-6.13,9.339-7.08c35.353-7.926,69.055-21.917,104.703-29.515
		c-3.253,0.29-6.519,0.474-9.756,0.885c-69.437,8.835-138.476,20.024-207.172,33.542c-66.605,13.106-134,20.508-201.633,26.076
		c-75.914,6.251-151.696,8.046-226.782-7.312c-71.143-14.551-140.335-38.243-213.462-43.719
		c-25.426-1.905-51.295-1.812-74.935-17.05c-12.772-8.232-22.306,3.737-23.325,17.463c-1.501,20.212-1.686,40.545-1.793,60.829
		c-0.09,17.006,6.029,36.352-0.182,50.438c-7.863,17.834-7.716,32.995-3.418,50.168c0.176,0.701,0.331,1.405,0.503,2.106h1048.066
		C1104.22,463.142,1107.69,459.863,1112.414,457.556z"/>
	<path fill="#D52B1E" d="M153.114,811.15c61.561,60.375,138.419,85.575,220.781,98.032c83.341,12.605,166.213,9.799,247.901-12.455
		c12.532-3.414,29.388,1.988,37.198-8.444c10.734-14.337,24.807-11.299,37.987-14.263c4.152-0.934,9.825,0.416,12.496-1.918
		c23.037-20.131,55.774-8.236,80.081-24.837c6.495-4.437,16.137-4.626,23.571,3.159c3.572,3.741,9.555,2.67,13.69-0.618
		c2.345-1.865,1.78-5.057,1.293-8.362c-0.875-5.935-14.835-9.699-3.066-17.77c6.281-4.306,12.841-6.465,20.55-7.617
		c20.094-3.003,40.037-5.789,58.774-15.857c18.936-10.175,39.405-18.113,59.992-24.474c49.419-15.27,95.516-37.743,142.395-60.894
		c-5.89-4.1-9.951-9.14-15.326-12.493H86.869c0.322,10.993,1.919,21.839,6.834,30.154
		C110.335,760.63,129.241,787.737,153.114,811.15z"/>
	<path fill="#034EA2" d="M1122.429,546.299c8.322-6.042,19.991-6.455,27.571-16.027c-5.533-0.912-11.454-0.167-14.634-2.77
		c-6.626-5.423,5.999-7.083,4.274-12.504c-17.408,1.154-34.345,1.284-50.829,6.705c-0.949-10.052,8.276-12.362,9.399-19.31
		c0.449-2.775,6.906-6.551-0.316-7.791c-12.062-2.072-5.191-6.839-3.331-12.517c1.8-5.495,3.895-10.66,6.943-15.039H53.438
		c6.553,26.698,10.758,53.712,14.351,81.065c3.294,25.076,3.26,50.94,11.125,75.413c6.294,19.585,9.243,39.28,8.278,60.19
		c-0.275,5.957-0.507,12.316-0.323,18.627h1004.561c-2.685-1.675-5.691-2.937-9.428-3.436c-6.071-0.81-16.214-9.477-1.702-17.228
		c4.576-2.444,7.939-7.161,13.415-12.298c-21.184-4.246-17.024-10.924-3.588-18.309c1.627-0.895,3.256-1.861,4.675-3.044
		c7.107-5.933,22.914-10.62,2.88-20.591c-2.746-1.366-3.972-7.562-2.218-7.976c20.244-4.766,16.027-19.846,15.521-33.862
		c-0.081-2.249,3.603-4.872,5.899-6.926c7.268-6.502,14.704-12.817,22.791-19.825c-4.691,1.099-8.3,2.048-11.952,2.774
		c-5.245,1.042-12.2,4.306-14.426-2.696C1111.431,553.049,1118.087,549.452,1122.429,546.299z M416.01,673.785l-17.089-12.218
		l-17.395,11.777l6.338-20.027l-16.576-12.904l21.006-0.16l7.149-19.753l6.644,19.929l20.995,0.696l-16.902,12.477L416.01,673.785z
		 M441.885,596.019l-1.296,20.967l-11.988-17.25l-20.342,5.248l12.7-16.732l-11.276-17.724l19.839,6.909l13.372-16.202
		l-0.439,21.002l19.54,7.711L441.885,596.019z M493.114,552.91l-9.097,18.934l-4.608-20.496l-20.818-2.802l18.068-10.715
		l-3.768-20.666l15.774,13.873l18.489-9.97l-8.319,19.289l15.195,14.504L493.114,552.91z M574.527,537.355l-19.271-8.362
		l-14.536,15.163l1.998-20.911l-18.914-9.14l20.505-4.562l2.848-20.812l10.676,18.092l20.673-3.723l-13.907,15.744L574.527,537.355z
		 M636.165,544.156l-14.538-15.163l-19.271,8.362l9.928-18.512l-13.907-15.744l20.673,3.723l10.675-18.092l2.849,20.812
		l20.505,4.562l-18.914,9.14L636.165,544.156z M692.868,571.844l-9.099-18.934l-20.917,1.952l15.196-14.504l-8.319-19.289
		l18.489,9.97l15.774-13.873l-3.768,20.666l18.07,10.715l-20.82,2.802L692.868,571.844z M736.294,616.985L735,596.019l-20.111-6.072
		l19.542-7.711l-0.441-21.002l13.372,16.202l19.838-6.909l-11.276,17.724l12.7,16.732l-20.34-5.248L736.294,616.985z
		 M795.358,673.345l-17.395-11.777l-17.088,12.218l5.826-20.183l-16.9-12.477l20.996-0.696l6.644-19.929l7.149,19.753l21.005,0.16
		l-16.576,12.904L795.358,673.345z"/>
	<g>
		<polygon fill="#FFFFFF" points="406.089,640.43 399.445,620.501 392.296,640.254 371.289,640.414 387.865,653.318 
			381.527,673.345 398.922,661.567 416.01,673.785 410.183,653.603 427.085,641.126 		"/>
		<polygon fill="#FFFFFF" points="442.894,561.234 429.521,577.435 409.683,570.527 420.959,588.251 408.259,604.983 
			428.601,599.736 440.589,616.985 441.885,596.019 461.994,589.947 442.454,582.236 		"/>
		<polygon fill="#FFFFFF" points="507.154,521.069 488.665,531.038 472.891,517.165 476.659,537.832 458.591,548.546 
			479.409,551.348 484.017,571.844 493.114,552.91 514.031,554.862 498.835,540.358 		"/>
		<polygon fill="#FFFFFF" points="557.833,506.822 547.157,488.73 544.308,509.542 523.804,514.104 542.717,523.245 540.72,544.156 
			555.257,528.992 574.527,537.355 564.599,518.843 578.506,503.099 		"/>
		<polygon fill="#FFFFFF" points="805.594,640.414 784.589,640.254 777.44,620.501 770.796,640.43 749.8,641.126 766.7,653.603 
			760.875,673.785 777.963,661.567 795.358,673.345 789.018,653.318 		"/>
		<polygon fill="#FFFFFF" points="755.924,588.251 767.2,570.527 747.362,577.435 733.989,561.234 734.431,582.236 714.889,589.947 
			735,596.019 736.294,616.985 748.284,599.736 768.624,604.983 		"/>
		<polygon fill="#FFFFFF" points="700.224,537.832 703.992,517.165 688.218,531.038 669.729,521.069 678.048,540.358 
			662.852,554.862 683.769,552.91 692.868,571.844 697.474,551.348 718.294,548.546 		"/>
		<polygon fill="#FFFFFF" points="632.575,509.542 629.726,488.73 619.051,506.822 598.377,503.099 612.284,518.843 
			602.356,537.355 621.626,528.992 636.165,544.156 634.166,523.245 653.079,514.104 		"/>
	</g>
</g>
</svg>
